<svg width="399" height="264" viewBox="0 0 399 264" xmlns="http://www.w3.org/2000/svg">
<rect id="rect-1" class="vm" stroke="black" fill="none" x="17.5" y="18" width="161" height="84"></rect>
<rect id="rect-2" class="vm" stroke="black" fill="none" x="213.5" y="18" width="161" height="84"></rect>
<rect id="rect-3" class="rect" stroke="black" fill="none" x="38.5" y="42" width="119" height="24"></rect>
<rect id="rect-4" class="rect" stroke="black" fill="none" x="234.5" y="42" width="119" height="24"></rect>
<rect id="rect-5" class="rect" stroke="black" fill="none" x="38.5" y="66" width="119" height="24"></rect>
<rect id="rect-6" class="rect" stroke="black" fill="none" x="234.5" y="66" width="119" height="24"></rect>
<rect id="rect-7" class="hw" stroke="black" fill="none" x="17.5" y="102" width="161" height="24"></rect>
<rect id="rect-8" class="hw" stroke="black" fill="none" x="213.5" y="102" width="161" height="24"></rect>
<rect id="hv" class="rect" stroke="black" fill="none" x="17.5" y="174" width="357" height="24"></rect>
<rect id="rect-9" class="hw" stroke="black" fill="none" x="17.5" y="198" width="357" height="24"></rect>
<line stroke="black" x1="73.5" y1="144" x2="73.5" y2="156"/>
<line stroke="black" x1="255.5" y1="144" x2="255.5" y2="156"/>
<path stroke="black" d="M 73.5,144 L 73.5,132 M 73.5,132 L 70,141 M 73.5,132 L 77,141" fill="none" />
<path stroke="black" d="M 255.5,144 L 255.5,132 M 255.5,132 L 252,141 M 255.5,132 L 259,141" fill="none" />
<path stroke="black" d="M 73.5,156 L 73.5,168 M 70,159 L 73.5,168 M 77,159 L 73.5,168" fill="none" />
<path stroke="black" d="M 255.5,156 L 255.5,168 M 252,159 L 255.5,168 M 259,159 L 255.5,168" fill="none" />
<text x="63" y="36" font-size="12px" font-family="monospace">OS</text>
<text x="84" y="36" font-size="12px" font-family="monospace">guest</text>
<text x="126" y="36" font-size="12px" font-family="monospace">1</text>
<text x="259" y="36" font-size="12px" font-family="monospace">OS</text>
<text x="280" y="36" font-size="12px" font-family="monospace">guest</text>
<text x="322" y="36" font-size="12px" font-family="monospace">2</text>
<text x="49" y="60" font-size="12px" font-family="monospace">user</text>
<text x="84" y="60" font-size="12px" font-family="monospace">processes</text>
<text x="245" y="60" font-size="12px" font-family="monospace">user</text>
<text x="280" y="60" font-size="12px" font-family="monospace">processes</text>
<text x="63" y="84" font-size="12px" font-family="monospace">guest</text>
<text x="105" y="84" font-size="12px" font-family="monospace">OS</text>
<text x="266" y="84" font-size="12px" font-family="monospace">guest</text>
<text x="308" y="84" font-size="12px" font-family="monospace">OS</text>
<text x="56" y="120" font-size="12px" font-family="monospace">virtual</text>
<text x="112" y="120" font-size="12px" font-family="monospace">hardw.</text>
<text x="252" y="120" font-size="12px" font-family="monospace">virtual</text>
<text x="308" y="120" font-size="12px" font-family="monospace">hard.</text>
<text x="84" y="144" font-size="12px" font-family="monospace">enter</text>
<text x="266" y="144" font-size="12px" font-family="monospace">enter</text>
<text x="49" y="156" font-size="12px" font-family="monospace">VM</text>
<text x="231" y="156" font-size="12px" font-family="monospace">VM</text>
<text x="84" y="168" font-size="12px" font-family="monospace">exit</text>
<text x="266" y="168" font-size="12px" font-family="monospace">exit</text>
<text x="161" y="192" font-size="12px" font-family="monospace">Hypervisor</text>
<text x="168" y="216" font-size="12px" font-family="monospace">Hardware</text>

  <style>
  .vm {
    fill: lightgreen; 
    filter: drop-shadow(0px 4px 4px rgba(0, 0, 0, 0.4));
  }
  #hv {
    fill: salmon;
    filter: drop-shadow(0px 4px 4px rgba(0, 0, 0, 0.4));
  }
  .hw {
    fill: orangered;
    filter: drop-shadow(0px 4px 4px rgba(0, 0, 0, 0.4));
  }
  rect {fill: AliceBlue;}
  </style>
</svg>
